<svg version="1.1" id="Layer_1" xmlns="http://www.w3.org/2000/svg" xmlns:xlink="http://www.w3.org/1999/xlink" x="0px" y="0px"
	 width="100%" viewBox="0 0 3217 1935" enable-background="new 0 0 3217 1935" xml:space="preserve">
<path fill="#FFFFFF" opacity="1.000000" stroke="none" 
	d="
M2.000000,472.000000 
	C2.000000,315.382385 2.000000,158.764771 2.000000,2.000000 
	C738.053711,2.000000 1474.107422,2.000000 2210.516113,2.593620 
	C2205.239990,3.697005 2199.578125,3.985157 2193.981689,4.750449 
	C2130.987549,13.364621 2068.821289,25.946966 2007.926758,44.370453 
	C1952.770386,61.057842 1899.221313,81.693863 1848.557373,109.486664 
	C1805.743042,132.973328 1765.890503,160.302200 1731.980591,195.793228 
	C1710.215942,218.572906 1692.116211,243.801865 1679.128540,272.585968 
	C1661.422852,311.826691 1656.307983,352.875763 1662.449585,395.263641 
	C1667.655029,431.190521 1680.503540,464.637177 1697.730591,496.430176 
	C1703.020752,506.193451 1709.040405,515.561340 1715.519043,526.442078 
	C1718.681885,520.494202 1721.078735,516.200195 1723.278320,511.807495 
	C1728.334106,501.710510 1732.875122,491.331909 1738.369263,481.482758 
	C1756.509521,448.962799 1775.682373,417.092438 1797.241211,386.654907 
	C1823.397095,349.727448 1851.456177,314.381531 1882.686768,281.642975 
	C1907.724609,255.396057 1933.762207,230.108826 1962.909180,208.400192 
	C1978.586548,196.723831 1995.266357,186.393311 2011.955078,175.955139 
	C2012.755981,176.755051 2013.095703,177.055313 2013.162109,177.964874 
	C1999.540283,192.433502 1985.959106,206.077393 1972.892212,220.197357 
	C1946.636963,248.568893 1923.813110,279.689880 1902.550659,311.845428 
	C1886.620483,335.937134 1871.595215,360.726501 1857.740601,386.065491 
	C1841.482666,415.799683 1826.509888,446.263458 1811.776245,476.795166 
	C1801.394653,498.308350 1792.178833,520.392944 1782.767700,542.361755 
	C1778.522095,552.272400 1775.069214,562.522583 1771.009277,573.273743 
	C1774.832764,574.161072 1777.339355,575.052246 1779.906250,575.287842 
	C1795.453247,576.715454 1810.995117,578.768494 1826.574341,579.149109 
	C1853.496826,579.806763 1880.459717,580.045227 1907.239868,575.949097 
	C1930.733398,572.355835 1953.610718,566.384033 1974.901245,555.889282 
	C2008.646484,539.255249 2032.909180,512.866821 2049.070801,479.133148 
	C2061.345947,453.511322 2069.187988,426.328796 2073.977783,398.416656 
	C2080.368652,361.174255 2086.077881,323.809723 2091.656494,286.434448 
	C2097.834961,245.043106 2105.077637,203.940384 2117.666260,163.887161 
	C2134.697754,109.699272 2161.161621,61.217350 2201.943848,21.130220 
	C2208.531982,14.654454 2215.309814,8.371895 2222.000000,1.999990 
	C2554.488281,2.000000 2886.976807,2.000000 3220.000000,2.000000 
	C3220.000000,190.720062 3220.000000,379.440613 3219.304688,568.753662 
	C3217.075928,563.924377 3216.192871,558.210266 3213.907471,553.126526 
	C3193.520508,507.773926 3146.571045,483.520538 3097.173096,494.997650 
	C3055.736328,504.625000 3029.295410,531.390564 3020.692383,573.822205 
	C3012.459961,614.425110 3034.948486,658.482178 3072.074463,677.154236 
	C3092.309326,687.331055 3113.408447,690.906799 3135.627441,687.813721 
	C3153.407959,685.338440 3169.552979,678.567078 3183.535156,667.148499 
	C3184.885498,666.045837 3185.229736,663.711121 3186.011230,661.972168 
	C3185.981445,661.995972 3185.926758,662.049866 3186.552490,662.561401 
	C3189.370361,661.653992 3192.107422,660.670837 3193.654785,658.736084 
	C3198.805176,652.296021 3204.411621,645.976318 3208.193848,638.747437 
	C3212.975586,629.607849 3216.138672,619.621216 3220.000000,610.000000 
	C3220.000000,1052.556519 3220.000000,1495.113159 3220.000000,1938.000000 
	C2538.613037,1938.000000 1857.225952,1938.000000 1174.904541,1937.488037 
	C1173.970337,1936.634521 1173.970337,1936.293091 1174.804077,1935.665283 
	C1190.500854,1933.911743 1205.468750,1933.127563 1220.209961,1930.865967 
	C1310.984375,1916.938843 1394.205322,1883.429321 1470.664307,1832.902466 
	C1523.314819,1798.108887 1571.425537,1757.840942 1613.832397,1711.032104 
	C1633.229492,1689.621582 1651.718628,1667.387817 1670.572510,1645.486694 
	C1672.333618,1643.441162 1673.753418,1641.101562 1675.331665,1638.898438 
	C1511.612061,1752.283325 1331.909790,1813.988281 1132.273438,1812.648804 
	C933.545105,1811.315430 752.500122,1754.300293 589.136963,1636.033813 
	C591.208984,1638.850708 591.854309,1639.867676 592.634399,1640.767944 
	C610.233093,1661.077026 627.040649,1682.150635 645.671265,1701.465454 
	C666.652527,1723.217529 688.693420,1744.042847 711.309326,1764.103638 
	C761.539673,1808.658813 816.886414,1845.710327 877.397034,1875.063599 
	C920.054565,1895.756470 964.354370,1911.519165 1010.510132,1922.231079 
	C1040.663330,1929.229126 1071.252197,1933.200317 1102.033447,1936.458740 
	C1102.022095,1937.315063 1102.011108,1937.657593 1102.000000,1938.000000 
	C735.453674,1938.000000 368.907288,1938.000000 2.000000,1938.000000 
	C2.000000,1453.279663 2.000000,968.559204 2.558126,483.315308 
	C9.970815,495.106384 13.540497,496.831299 27.210655,494.097473 
	C31.110794,493.317505 35.175259,492.686829 38.751102,491.072327 
	C55.691639,483.423767 73.030670,476.432190 89.234863,467.421112 
	C135.688599,441.588287 181.562744,414.715485 227.873245,388.621552 
	C246.110367,378.345795 264.546234,368.247406 284.795563,362.273712 
	C289.193115,360.976440 293.895691,360.195068 298.471771,360.127625 
	C308.346985,359.981934 313.178070,364.040649 315.035767,373.777100 
	C315.709259,377.306854 315.998413,381.172272 315.297638,384.649750 
	C313.599335,393.077423 311.797943,401.567719 309.002197,409.675568 
	C299.964844,435.884460 286.815857,460.174988 273.006439,484.097595 
	C249.047928,525.601868 223.171021,565.909119 195.029205,604.678528 
	C160.455154,652.309326 125.436340,699.626282 89.929230,746.564087 
	C81.577454,757.604492 78.875603,768.366211 81.360825,781.687134 
	C84.874062,800.518127 91.328804,818.203064 100.122719,835.043701 
	C103.002800,840.559204 107.010971,845.708984 111.370598,850.180298 
	C119.474777,858.492371 129.854401,859.158020 139.177765,851.995667 
	C143.858994,848.399536 148.316406,844.071106 151.639435,839.226257 
	C164.238190,820.857849 176.303085,802.123962 188.619873,783.561340 
	C229.621140,721.768188 271.858643,660.864441 317.498627,602.358154 
	C362.482697,544.692688 408.055817,487.563934 461.655701,437.460480 
	C475.983429,424.067413 490.724030,411.081909 507.853241,401.248901 
	C511.552734,399.125183 515.611145,397.330566 519.733337,396.308777 
	C525.850830,394.792450 529.764771,397.414185 530.016235,403.752014 
	C530.289673,410.641266 529.969971,417.742828 528.566284,424.471741 
	C525.334595,439.963654 517.509094,453.690857 509.412872,466.978638 
	C487.614166,502.755463 466.362335,538.956543 442.680573,573.470886 
	C415.618011,612.912537 386.022278,650.609741 357.815735,689.275330 
	C343.122040,709.417542 328.795837,729.840698 314.802368,750.475220 
	C307.868835,760.699280 302.006409,771.946777 301.909973,784.595642 
	C301.808960,797.842041 302.563232,811.211365 304.397949,824.323486 
	C306.236816,837.465393 310.510742,850.156738 317.907318,861.431274 
	C326.097198,873.915100 335.439087,875.899597 347.203583,866.565247 
	C354.408234,860.848816 360.701935,853.791260 366.628937,846.688599 
	C407.288391,797.964111 446.970215,748.399353 488.509247,700.441101 
	C521.331543,662.546570 555.964844,626.187012 590.554016,589.869751 
	C610.038208,569.412170 630.632385,549.949951 651.514771,530.903564 
	C671.635010,512.552185 692.577698,495.081085 713.561768,477.709778 
	C720.937012,471.604401 729.471069,466.886841 737.548035,461.646667 
	C740.941956,459.444733 744.372681,459.031311 747.350769,462.549591 
	C750.100037,465.797455 748.772827,468.719482 746.595459,471.509979 
	C740.673035,479.100098 735.050110,486.957611 728.703308,494.177124 
	C696.908569,530.343567 664.916443,566.326477 635.391052,604.423523 
	C614.146362,631.835938 594.647217,660.382690 578.847046,691.262695 
	C563.759583,720.749756 553.125244,751.847168 550.607910,785.079895 
	C549.046387,805.694702 549.318604,826.454163 558.136658,845.879150 
	C568.968323,869.739929 586.566650,885.925964 612.687195,891.233154 
	C630.448364,894.841919 647.569885,891.424622 664.070740,884.283020 
	C684.909241,875.264099 704.100159,863.331665 723.056274,851.010254 
	C768.056335,821.760376 808.098755,786.293091 848.110535,750.807861 
	C849.720703,749.379883 851.426697,747.043823 851.499939,745.071838 
	C851.852173,735.592102 851.658264,726.092102 851.658264,715.085876 
	C847.878967,717.198425 845.507385,718.205627 843.494019,719.696594 
	C806.564819,747.043274 767.055481,770.442017 728.296570,794.983521 
	C716.411621,802.508789 703.665649,808.147156 689.487061,809.677856 
	C668.148071,811.981689 654.143921,803.640015 652.205750,783.538696 
	C651.227539,773.393311 651.696960,762.822510 653.388123,752.759399 
	C658.326172,723.375916 669.677917,696.006042 682.434021,669.317810 
	C704.886353,622.343262 733.272888,578.960938 763.987244,537.029846 
	C801.028931,486.460571 844.220886,441.287598 887.039795,395.752197 
	C895.383972,386.878693 902.408813,376.705322 909.523071,366.760162 
	C912.987488,361.917206 912.827576,356.045105 910.236755,350.618469 
	C902.019531,333.406708 892.114990,317.277710 878.610779,303.646973 
	C868.463318,293.404449 860.132629,291.744263 847.094055,298.320526 
	C839.133484,302.335602 831.354309,307.125336 824.449280,312.741913 
	C802.031006,330.976715 780.338196,350.106750 757.836792,368.235168 
	C727.049194,393.039459 695.224426,416.621979 667.193420,444.645355 
	C632.798035,479.031342 598.789429,513.804016 564.584045,548.380188 
	C540.462219,572.763550 516.291077,597.098145 491.907990,620.920349 
	C491.313690,620.245361 490.953339,620.104431 490.951233,619.310181 
	C501.510559,601.918213 511.995880,585.345032 521.859253,568.409607 
	C551.114258,518.178650 580.628479,468.086639 608.969971,417.341888 
	C619.609253,398.292694 627.811279,377.809021 636.197571,357.594788 
	C645.028687,336.308105 638.928223,317.106293 624.993835,300.096924 
	C612.018127,284.257721 598.083313,280.520935 580.123352,290.256561 
	C564.067993,298.959747 547.785278,307.462494 532.667664,317.635986 
	C485.312439,349.504059 442.595001,386.843903 405.138245,429.986908 
	C369.047455,471.556580 333.314392,513.436768 297.365631,555.130066 
	C296.120392,556.574341 294.245789,557.476013 292.664520,558.630554 
	C292.477966,555.191772 293.240936,552.725769 294.368408,550.439514 
	C309.960419,518.823120 326.173370,487.497101 341.042480,455.545380 
	C351.952606,432.100952 361.616333,408.035217 370.861511,383.873688 
	C375.963257,370.540771 380.002716,355.893890 377.191376,341.922119 
	C371.982330,316.034180 361.727051,291.732239 345.295288,270.646515 
	C339.637604,263.386353 331.802368,258.072815 322.141388,259.206787 
	C311.317780,260.477203 300.565948,262.836395 289.969696,265.472687 
	C263.138123,272.148254 237.346191,282.061676 212.076172,293.037689 
	C187.120468,303.877197 162.690735,315.979736 138.350998,328.168640 
	C119.374641,337.671692 100.890076,348.156769 81.950821,357.954956 
	C81.714676,357.704468 81.236229,357.209320 81.330414,356.511292 
	C84.431580,346.937439 90.917107,340.674652 97.668060,334.741943 
	C104.137085,329.057007 111.002945,323.826019 117.608696,318.293182 
	C120.649162,315.746521 123.896362,313.103973 120.649651,307.038757 
	C117.221413,308.478180 113.501419,309.443665 110.434830,311.422028 
	C85.864922,327.272858 62.386578,344.617493 40.713203,364.271576 
	C29.987204,373.998230 21.672382,385.525116 18.167570,399.908112 
	C15.346604,411.484772 12.647734,423.092865 10.046548,434.720978 
	C7.271451,447.126526 4.674643,459.571960 2.000000,472.000000 
M1459.832642,381.771393 
	C1459.832642,381.771393 1459.445679,381.501251 1459.445679,381.501251 
	C1459.445679,381.501251 1459.951294,382.090118 1460.450684,383.329834 
	C1464.258423,387.030243 1468.259766,390.553131 1471.840942,394.461090 
	C1489.516846,413.750153 1502.536377,436.156586 1514.499146,459.201935 
	C1533.537354,495.877686 1548.359009,534.339722 1561.346924,573.475586 
	C1575.478760,616.057800 1586.732300,659.446472 1595.582397,703.452576 
	C1603.769165,744.160278 1609.263184,785.245178 1611.492554,826.670837 
	C1612.867920,852.229919 1611.995728,877.885559 1607.651855,903.228760 
	C1604.837036,919.651855 1600.489258,935.674377 1592.207275,950.328064 
	C1583.805664,965.193604 1571.928589,975.986755 1554.802368,979.327576 
	C1545.065063,981.226990 1535.064941,982.333374 1525.146729,982.648010 
	C1495.203491,983.597839 1465.306396,982.301880 1435.558838,978.677795 
	C1398.964600,974.219543 1362.387085,969.611694 1325.838623,964.793579 
	C1289.948242,960.062317 1254.165283,954.462952 1218.222534,950.195251 
	C1173.719238,944.911194 1129.149292,940.052551 1084.514893,936.052307 
	C1048.482422,932.822876 1012.341309,930.200195 976.193054,929.055786 
	C945.283569,928.077148 914.294006,929.497253 883.342407,930.007324 
	C842.717712,930.676758 802.445007,935.200500 762.510864,942.380310 
	C707.897034,952.199402 655.088440,967.788574 605.968445,994.256714 
	C595.495056,999.900330 585.418091,1006.279602 573.744263,1013.152527 
	C601.710266,1037.979248 628.640320,1061.886353 655.294128,1085.548218 
	C656.843018,1084.728760 657.493408,1084.518921 657.975586,1084.110474 
	C691.369995,1055.824219 730.760620,1040.451172 773.075012,1032.527466 
	C815.995605,1024.490112 859.422485,1021.774109 903.090515,1025.212524 
	C931.230591,1027.428223 959.450867,1028.934814 987.487122,1032.079346 
	C1019.826172,1035.706421 1052.094238,1040.213013 1084.227539,1045.369385 
	C1132.454956,1053.108398 1180.493896,1062.017212 1228.697510,1069.911865 
	C1264.762329,1075.818481 1300.918701,1081.210693 1337.110596,1086.287231 
	C1381.216553,1092.473999 1425.486328,1096.372192 1470.138306,1095.342896 
	C1501.212280,1094.626587 1531.765747,1091.283569 1561.543335,1082.040649 
	C1589.501953,1073.362305 1613.620239,1058.695190 1632.498413,1036.118286 
	C1659.020630,1004.399292 1675.234375,967.539001 1686.083252,927.976685 
	C1696.242920,890.927490 1699.932373,852.967712 1701.491943,814.846008 
	C1702.814697,782.510437 1707.828369,750.781921 1714.716675,719.369202 
	C1730.135864,649.054688 1754.257446,581.527954 1782.316284,515.366089 
	C1799.328369,475.252350 1818.033569,435.918396 1838.822876,397.623962 
	C1858.017578,362.267303 1877.747681,327.204590 1901.407349,294.538177 
	C1906.899048,286.956024 1912.119019,279.177124 1917.463989,271.488739 
	C1908.783325,276.731506 1901.141724,282.901001 1894.189575,289.768524 
	C1861.413574,322.145264 1833.555908,358.546753 1808.028564,396.752472 
	C1775.097046,446.039734 1746.026245,497.514374 1721.635376,551.587585 
	C1704.958862,588.558228 1689.990234,626.181458 1679.303101,665.352722 
	C1673.767700,685.642273 1669.150635,706.182495 1663.940918,727.331482 
	C1663.117188,725.438171 1662.196411,723.856567 1661.722290,722.150757 
	C1655.768188,700.719727 1649.699585,679.318176 1644.012573,657.815857 
	C1634.413696,621.522827 1624.870972,585.207825 1611.756470,549.985535 
	C1597.658325,512.121216 1580.247437,476.048676 1554.268188,444.577118 
	C1532.427979,418.119843 1505.864624,398.256042 1474.074463,385.477051 
	C1469.606079,383.680847 1464.583008,383.264709 1459.832642,381.771393 
M1793.716064,1460.993164 
	C1793.187500,1490.088989 1797.330933,1518.676758 1804.636475,1546.688843 
	C1818.007446,1597.957397 1842.071899,1643.104492 1883.001953,1678.044312 
	C1911.200073,1702.115479 1943.677612,1717.353149 1980.074219,1723.906372 
	C2000.060303,1727.504761 2020.219360,1728.166992 2040.576050,1726.158447 
	C2070.081055,1723.247192 2097.891846,1715.541504 2123.844238,1700.997192 
	C2148.179443,1687.359131 2169.072266,1669.504028 2188.501953,1649.748779 
	C2191.167480,1647.038696 2193.634033,1644.132812 2196.192627,1641.317383 
	C2196.885498,1641.522217 2197.578125,1641.727051 2198.270752,1641.931763 
	C2198.270752,1648.793823 2197.782227,1655.696655 2198.353027,1662.510986 
	C2201.259521,1697.218872 2220.929688,1722.938110 2256.161377,1726.943970 
	C2278.007080,1729.428101 2307.445068,1719.302612 2318.676758,1695.047363 
	C2324.853271,1681.709229 2327.631592,1667.942383 2327.640869,1653.621826 
	C2327.768311,1461.963135 2327.748779,1270.304321 2327.662109,1078.645630 
	C2327.657471,1068.374390 2327.349854,1058.029541 2326.122803,1047.846680 
	C2322.493408,1017.731567 2306.231689,995.237976 2272.808350,991.393677 
	C2239.113525,987.518188 2210.623779,1001.972107 2201.723389,1038.878784 
	C2198.815918,1050.934692 2197.703369,1063.092896 2197.706543,1075.427246 
	C2197.721191,1135.424805 2197.721436,1195.422241 2197.696777,1255.419800 
	C2197.695557,1258.578857 2197.422119,1261.737915 2197.202393,1266.467407 
	C2193.596680,1263.106445 2191.307617,1260.820801 2188.861328,1258.718506 
	C2177.025391,1248.546631 2165.568115,1237.872070 2153.182129,1228.416992 
	C2135.895752,1215.220947 2116.823730,1204.861328 2095.879883,1198.701416 
	C2056.278564,1187.054077 2015.920410,1185.570679 1975.350098,1192.127441 
	C1938.108276,1198.146240 1904.789062,1213.338745 1875.989624,1237.864258 
	C1840.430054,1268.146729 1817.994629,1306.655518 1805.658081,1351.378662 
	C1795.937988,1386.615967 1792.626587,1422.561035 1793.716064,1460.993164 
M173.413330,1295.997925 
	C166.010971,1296.615356 167.776886,1291.117065 167.771957,1287.186768 
	C167.703735,1232.861694 167.718277,1178.536621 167.750610,1124.211548 
	C167.752151,1121.629639 168.107880,1119.047974 168.382141,1115.336548 
	C172.756821,1115.336548 176.655930,1115.336548 180.555023,1115.336548 
	C273.540894,1115.337036 366.526733,1115.346802 459.512604,1115.328857 
	C475.321014,1115.325928 490.914093,1113.455322 504.698700,1105.210327 
	C524.265259,1093.506958 531.168579,1074.607056 529.355286,1053.179443 
	C527.381836,1029.859497 514.524780,1013.468994 491.410553,1007.162537 
	C481.597412,1004.485107 471.153290,1002.929443 460.990936,1002.904663 
	C343.342865,1002.617432 225.693604,1002.620483 108.045410,1002.880676 
	C96.490860,1002.906189 84.703209,1004.077698 73.437943,1006.581055 
	C48.610409,1012.098328 30.533091,1026.234619 23.995325,1051.777588 
	C21.057262,1063.256592 18.527287,1075.243652 18.505823,1087.005249 
	C18.168285,1271.976440 18.224047,1456.948486 18.370895,1641.920288 
	C18.381172,1654.867432 19.918131,1667.830566 24.598076,1680.089966 
	C29.017307,1691.666260 34.796677,1702.266235 44.748566,1710.404419 
	C62.990368,1725.321411 83.762718,1729.623657 106.436005,1725.950806 
	C132.361465,1721.751221 151.045197,1708.041138 160.580902,1682.972656 
	C165.478073,1670.098267 167.649261,1656.691406 167.670853,1643.023804 
	C167.789368,1568.035400 167.726044,1493.046753 167.725174,1418.058105 
	C167.725128,1414.166870 167.725174,1410.275757 167.725174,1405.345337 
	C172.890381,1405.345337 176.802216,1405.345459 180.714050,1405.345337 
	C258.035614,1405.344238 335.357239,1405.302612 412.678741,1405.383789 
	C424.816132,1405.396606 436.714874,1403.601196 447.835327,1399.158081 
	C465.181549,1392.227417 475.965424,1379.304077 478.119202,1360.324219 
	C478.828552,1354.073120 478.837372,1347.602173 478.102966,1341.356812 
	C476.575653,1328.368774 471.202240,1317.323364 460.411560,1309.151855 
	C446.981659,1298.981934 431.609985,1296.012207 415.310333,1296.010254 
	C335.322479,1296.000488 255.334641,1296.005737 173.413330,1295.997925 
M623.726624,1324.725098 
	C611.228149,1361.157104 608.120850,1398.530640 611.494751,1436.775024 
	C613.436218,1458.781860 617.421021,1480.245361 625.637024,1500.686157 
	C655.189575,1574.210693 709.026001,1620.974487 784.720886,1642.709839 
	C823.654846,1653.889404 863.473083,1654.490845 903.428589,1649.305786 
	C931.011902,1645.726196 957.392273,1637.705322 982.154114,1625.129028 
	C1006.651489,1612.686890 1028.058105,1595.982910 1047.122192,1576.057739 
	C1073.920776,1548.048462 1092.249146,1515.448486 1101.941772,1478.050537 
	C1110.441772,1445.253906 1112.028931,1411.983887 1108.423096,1378.271973 
	C1102.052490,1318.715698 1076.258667,1269.250122 1031.661255,1229.726074 
	C985.325012,1188.661255 929.984619,1170.487793 868.881714,1169.017700 
	C851.022034,1168.588013 832.967224,1169.931152 815.223694,1172.198364 
	C761.657471,1179.043213 715.524231,1202.137329 677.204529,1239.869507 
	C653.304688,1263.402710 635.310608,1291.270996 623.726624,1324.725098 
M1667.847412,1458.705933 
	C1673.720825,1425.333862 1674.011597,1391.766602 1667.303101,1358.692505 
	C1651.286987,1279.729004 1604.910767,1224.118164 1532.272705,1190.827881 
	C1486.798218,1169.986938 1438.283447,1165.381348 1388.840820,1170.486938 
	C1325.071045,1177.072021 1271.052490,1203.240234 1228.290527,1251.584595 
	C1193.721924,1290.665894 1176.204224,1336.888306 1172.584473,1388.352051 
	C1171.286621,1406.803467 1172.401123,1425.557495 1173.951782,1444.044556 
	C1176.190063,1470.729370 1183.892334,1496.156250 1195.600098,1520.263062 
	C1207.794922,1545.372925 1224.828735,1566.851807 1244.976562,1586.092041 
	C1274.739258,1614.513550 1309.608154,1633.702271 1349.320312,1643.780029 
	C1390.830811,1654.314209 1433.007812,1655.351929 1475.000366,1647.760010 
	C1543.937256,1635.296509 1598.123657,1599.623413 1636.477661,1540.758545 
	C1652.446533,1516.249756 1662.277954,1489.152954 1667.847412,1458.705933 
M2785.543457,1423.541260 
	C2774.232910,1419.691650 2763.098877,1415.179443 2751.579834,1412.113403 
	C2713.043213,1401.855713 2674.337891,1392.232422 2635.760254,1382.126099 
	C2616.986816,1377.208008 2599.200928,1370.019653 2583.568604,1358.071045 
	C2569.203369,1347.090698 2562.970947,1324.883301 2572.125000,1308.943726 
	C2579.493896,1296.112671 2590.454102,1287.972168 2603.447021,1282.306641 
	C2624.428223,1273.157959 2646.610107,1272.186279 2669.079834,1273.899048 
	C2690.181396,1275.507812 2709.895020,1281.321167 2725.484375,1296.080811 
	C2738.703125,1308.596069 2750.522949,1322.578735 2763.163818,1335.718140 
	C2771.880859,1344.779175 2780.507812,1354.011353 2792.942139,1358.310791 
	C2809.303955,1363.968262 2825.593262,1363.413696 2841.925293,1358.356079 
	C2860.062256,1352.739502 2871.201904,1340.328979 2875.190186,1322.104614 
	C2877.854492,1309.930298 2876.772949,1297.615356 2871.946289,1285.864990 
	C2863.773682,1265.969238 2850.354248,1250.269287 2833.500732,1237.191406 
	C2802.752197,1213.331421 2767.025635,1201.573364 2729.539062,1193.948120 
	C2699.986572,1187.936768 2670.074463,1187.713379 2640.100342,1187.967896 
	C2613.301758,1188.195557 2587.056885,1191.904785 2561.484619,1199.903198 
	C2528.945068,1210.081055 2499.598389,1225.691406 2476.454834,1251.389282 
	C2446.914062,1284.190430 2436.248779,1322.477905 2443.520752,1365.906738 
	C2445.796875,1379.499023 2450.548096,1392.063354 2457.940674,1403.760742 
	C2474.732422,1430.331299 2499.401123,1447.824585 2526.820557,1461.055420 
	C2554.951660,1474.629639 2584.867676,1484.010620 2615.114746,1491.990234 
	C2637.594727,1497.920776 2660.183105,1503.446045 2682.614502,1509.551758 
	C2703.155762,1515.142822 2723.186523,1522.074707 2741.965576,1532.455200 
	C2771.370850,1548.709595 2780.438477,1596.825195 2748.986572,1617.979370 
	C2745.682129,1620.202148 2742.687988,1622.901245 2739.320068,1625.012329 
	C2725.218750,1633.851196 2709.488770,1638.350708 2693.181396,1639.586670 
	C2671.269531,1641.247192 2649.328125,1640.467041 2627.767578,1635.244019 
	C2595.572510,1627.444824 2572.310303,1607.560425 2554.138184,1580.842285 
	C2547.786133,1571.502930 2541.641357,1562.018677 2535.561035,1552.499146 
	C2519.488037,1527.335327 2483.165771,1525.799927 2461.611328,1539.005127 
	C2435.184814,1555.195190 2432.477539,1575.431152 2436.913330,1601.993042 
	C2440.724854,1624.814941 2452.832764,1644.095215 2468.683838,1660.893311 
	C2488.773682,1682.183228 2513.838379,1695.812012 2540.544922,1706.557007 
	C2576.773682,1721.133179 2614.929688,1726.528198 2653.646729,1727.086426 
	C2675.514160,1727.401855 2697.491455,1725.898682 2719.290283,1723.845093 
	C2755.341309,1720.448975 2790.009033,1711.557617 2822.134277,1694.180054 
	C2850.412354,1678.883789 2872.537354,1657.604248 2886.813721,1628.484131 
	C2898.805664,1604.023193 2902.659424,1578.147705 2902.459717,1551.104492 
	C2902.211670,1517.538086 2888.413818,1490.542847 2864.312988,1468.505371 
	C2841.937500,1448.045166 2815.449219,1434.217651 2785.543457,1423.541260 
M2818.976807,475.806915 
	C2785.110596,493.303680 2754.621094,515.904358 2724.760742,539.268677 
	C2688.593262,567.567810 2654.692871,598.472412 2623.591309,632.330017 
	C2604.479004,653.135803 2585.817139,674.357910 2566.544678,695.012085 
	C2556.834717,705.418030 2546.671143,715.509399 2535.856689,724.739929 
	C2527.816650,731.602295 2519.325195,727.438110 2518.514893,716.761536 
	C2518.147217,711.915039 2518.281250,706.371033 2520.281006,702.130615 
	C2525.781738,690.465271 2531.411621,678.642273 2538.739990,668.097656 
	C2561.722412,635.029358 2588.653320,605.184692 2616.183838,575.865295 
	C2624.355469,567.162720 2632.359863,558.156555 2639.281250,548.461609 
	C2649.039062,534.793701 2647.330322,514.343811 2624.320312,507.966248 
	C2607.360840,503.265778 2591.010254,503.783020 2574.840820,511.294556 
	C2556.571533,519.781738 2542.293213,533.261169 2529.282715,547.965820 
	C2498.585693,582.660217 2472.444580,620.714233 2448.757568,660.469177 
	C2437.434082,679.473755 2432.083984,700.169067 2432.349121,722.236206 
	C2432.496582,734.516846 2432.999756,746.803589 2433.727051,759.064697 
	C2435.014404,780.770386 2439.913818,801.713074 2448.151611,821.825439 
	C2453.067871,833.828430 2458.356201,845.679871 2467.905029,854.947998 
	C2474.506348,861.355225 2481.945312,864.506836 2491.403564,862.069092 
	C2498.781494,860.167480 2505.131104,856.651611 2509.935303,850.978149 
	C2526.241211,831.721985 2542.515869,812.429565 2558.350586,792.786621 
	C2583.145264,762.028992 2606.698975,730.231140 2634.801514,702.282288 
	C2644.702881,692.434875 2654.611816,682.561035 2665.031250,673.276001 
	C2681.396973,658.692200 2697.960938,644.307251 2714.921143,630.424744 
	C2722.712891,624.047058 2731.644287,619.061707 2740.058838,613.444946 
	C2740.553223,613.941101 2741.047607,614.437195 2741.541992,614.933350 
	C2740.303467,617.075134 2739.080811,619.226013 2737.823975,621.357117 
	C2713.001221,663.440857 2687.888184,705.356873 2663.451416,747.663513 
	C2647.594238,775.116272 2636.720215,804.160889 2639.637939,836.818726 
	C2640.866699,850.574402 2642.799805,864.172546 2652.153564,874.979370 
	C2665.845947,890.798889 2683.710938,893.216492 2703.052490,888.889648 
	C2723.011475,884.424683 2739.677002,873.341858 2755.635498,861.306030 
	C2802.677734,825.827332 2844.406494,784.310852 2887.775635,744.648926 
	C2895.833008,737.280273 2899.642822,729.529114 2898.477051,718.617188 
	C2897.587402,710.291199 2898.155029,701.809448 2898.060547,691.962891 
	C2894.182617,694.848389 2891.860107,696.624512 2889.489258,698.333252 
	C2863.056885,717.383972 2836.750244,736.612671 2810.116455,755.377747 
	C2798.978516,763.225159 2787.029053,770.015198 2773.593018,773.175049 
	C2747.557617,779.297852 2740.930420,763.452209 2742.690918,744.310303 
	C2742.750244,743.662354 2743.163086,743.051819 2743.258545,742.401489 
	C2745.534424,726.869202 2753.201172,713.483643 2760.975342,700.385071 
	C2783.309814,662.754089 2812.259033,630.208374 2841.259033,597.732666 
	C2850.765137,587.087402 2860.178955,576.347961 2869.282471,565.359558 
	C2874.067871,559.582947 2876.395020,552.650757 2875.708984,544.957397 
	C2875.062012,537.706055 2874.880127,530.378296 2873.693115,523.216980 
	C2870.960449,506.734650 2866.410156,490.813416 2857.549561,476.382355 
	C2853.748291,470.191284 2848.172852,467.701660 2841.415771,469.120270 
	C2834.295654,470.615082 2827.393066,473.146667 2818.976807,475.806915 
M2154.274902,897.235535 
	C2191.041992,894.228455 2223.793213,880.158875 2254.039795,859.982361 
	C2283.727295,840.178650 2310.422363,816.581177 2335.539307,791.346558 
	C2352.864502,773.940247 2369.047363,755.393616 2385.616455,737.243286 
	C2387.565430,735.108215 2389.929443,732.306091 2390.042969,729.722656 
	C2390.531494,718.611450 2390.251709,707.466370 2390.251709,693.916748 
	C2381.156738,701.315369 2374.149658,707.176331 2366.974854,712.824646 
	C2335.112061,737.908020 2303.769531,763.651794 2267.239990,782.139160 
	C2243.548096,794.129456 2219.185791,803.178894 2192.479736,804.649109 
	C2162.361816,806.307129 2138.824219,791.755920 2128.671875,763.770935 
	C2123.225830,748.758911 2123.200195,733.159485 2123.988281,717.795776 
	C2124.814941,717.074097 2125.223877,716.516418 2125.772217,716.271606 
	C2128.806152,714.916748 2131.847900,713.571472 2134.935059,712.343628 
	C2182.884033,693.270447 2229.441162,671.350891 2273.154785,643.785156 
	C2303.972900,624.351501 2332.730469,602.334045 2355.458984,573.438293 
	C2371.805176,552.656677 2382.968994,529.494446 2384.157471,502.624695 
	C2385.289307,477.040527 2375.516846,457.179962 2344.878662,449.615479 
	C2325.615479,444.859528 2306.522461,446.629272 2287.618408,450.917480 
	C2240.402588,461.628021 2198.938477,484.203125 2161.148926,513.871460 
	C2135.261230,534.195923 2110.436035,555.708008 2088.470703,580.391785 
	C2068.468018,602.869507 2050.508545,626.677612 2038.469727,654.435791 
	C2017.768066,702.167969 2015.492676,751.670898 2026.509399,801.840393 
	C2032.381958,828.583618 2044.426025,852.628418 2065.266602,871.389526 
	C2090.201416,893.836670 2119.896973,900.291687 2154.274902,897.235535 
M1251.985352,359.081177 
	C1268.350464,382.194946 1281.676758,407.090942 1295.014404,431.999512 
	C1306.144531,452.785583 1317.344238,473.550079 1329.173096,493.941162 
	C1337.853149,508.903992 1348.114746,522.961548 1360.684814,534.910278 
	C1387.738403,560.626099 1420.410278,568.323364 1456.631470,562.958557 
	C1481.480225,559.278137 1504.755981,550.490845 1527.456177,540.063049 
	C1531.261841,538.314758 1534.900757,536.203674 1538.926880,534.098083 
	C1534.731567,526.304688 1531.147217,519.588257 1527.510620,512.900146 
	C1507.963379,476.950562 1487.293579,441.706268 1462.921387,408.737000 
	C1442.697754,381.379578 1419.813843,356.524353 1393.686646,334.740784 
	C1384.577148,327.145721 1374.883545,320.251251 1365.171875,312.818909 
	C1366.347900,312.565155 1367.042480,312.182312 1367.598022,312.328430 
	C1435.334351,330.146484 1494.047852,363.205597 1542.355591,414.483032 
	C1557.918335,431.002228 1572.264648,448.298553 1584.915161,467.082062 
	C1585.894775,468.536438 1587.657715,469.463074 1589.780029,471.240967 
	C1593.201660,446.638733 1593.794312,423.165009 1590.072632,399.707123 
	C1584.168335,362.491913 1566.981567,331.446655 1538.376099,306.868988 
	C1507.313843,280.180664 1470.426392,265.767029 1431.173584,256.448181 
	C1386.417603,245.822952 1340.877930,245.082474 1295.255005,246.126770 
	C1281.681274,246.437469 1268.045166,247.531754 1254.605347,249.445343 
	C1227.655151,253.282623 1200.779175,257.694366 1173.958008,262.360016 
	C1162.769653,264.306305 1151.799683,267.506470 1140.730347,270.136444 
	C1163.073975,279.792694 1183.823853,290.772827 1202.470215,305.555573 
	C1221.370605,320.539581 1237.172729,338.367584 1251.985352,359.081177 
M1153.713379,755.791077 
	C1153.714355,750.128662 1153.837891,744.462769 1153.680664,738.804749 
	C1153.531006,733.423950 1154.371582,727.921326 1152.921387,721.864685 
	C1143.115356,729.583252 1134.306519,736.636963 1125.370850,743.526123 
	C1104.824829,759.366516 1084.142212,774.990479 1060.613892,786.353271 
	C1042.379761,795.159180 1023.544373,798.861206 1003.527588,793.970886 
	C986.922363,789.914062 973.973328,776.056519 971.749939,759.482971 
	C969.557739,743.142151 973.931274,728.274292 984.985352,716.312134 
	C1001.190979,698.775208 1017.586792,681.278198 1035.282227,665.292480 
	C1052.580566,649.665527 1066.637451,631.755127 1078.149780,611.882507 
	C1086.607178,597.283447 1094.761475,582.145630 1100.237793,566.277161 
	C1106.704712,547.538025 1100.244873,533.808289 1078.999146,531.099121 
	C1065.710327,529.404663 1052.463257,530.917725 1039.890747,536.439758 
	C1023.264832,543.742249 1008.683472,553.927063 995.473816,566.330078 
	C969.836548,590.401855 948.831848,618.216675 930.037170,647.710022 
	C921.853516,660.552124 913.887329,673.826599 908.118958,687.849365 
	C897.899658,712.692200 895.260132,738.783081 897.386536,765.811096 
	C899.713562,795.390076 906.286987,823.517761 920.082520,849.668030 
	C924.654602,858.334656 930.567993,867.034790 937.900818,873.365051 
	C960.003906,892.446594 985.577393,893.506958 1011.852173,883.498230 
	C1041.242065,872.302856 1065.433350,852.954346 1088.120239,831.821716 
	C1108.062622,813.245483 1126.764282,793.390808 1143.891846,772.143616 
	C1147.563232,767.589111 1150.446777,762.399414 1153.713379,755.791077 
M1091.689453,485.337830 
	C1097.238892,488.217865 1102.505737,492.068756 1108.394531,493.783234 
	C1122.225464,497.810059 1134.578735,492.886810 1145.870483,485.138947 
	C1162.859009,473.482178 1173.793213,456.930847 1181.572632,438.324799 
	C1186.132202,427.419617 1186.939331,415.709198 1183.081665,404.314056 
	C1177.341919,387.359283 1156.927856,377.955933 1137.877075,383.048523 
	C1124.152344,386.717346 1113.921631,395.269470 1104.933105,405.915344 
	C1094.103027,418.742188 1084.795288,432.307953 1080.980591,448.959198 
	C1077.891846,462.442657 1079.613037,474.704407 1091.689453,485.337830 
z"/>
<path fill="#EFA41C" opacity="1.000000" stroke="none" 
	d="
M492.141968,621.454468 
	C516.291077,597.098145 540.462219,572.763550 564.584045,548.380188 
	C598.789429,513.804016 632.798035,479.031342 667.193420,444.645355 
	C695.224426,416.621979 727.049194,393.039459 757.836792,368.235168 
	C780.338196,350.106750 802.031006,330.976715 824.449280,312.741913 
	C831.354309,307.125336 839.133484,302.335602 847.094055,298.320526 
	C860.132629,291.744263 868.463318,293.404449 878.610779,303.646973 
	C892.114990,317.277710 902.019531,333.406708 910.236755,350.618469 
	C912.827576,356.045105 912.987488,361.917206 909.523071,366.760162 
	C902.408813,376.705322 895.383972,386.878693 887.039795,395.752197 
	C844.220886,441.287598 801.028931,486.460571 763.987244,537.029846 
	C733.272888,578.960938 704.886353,622.343262 682.434021,669.317810 
	C669.677917,696.006042 658.326172,723.375916 653.388123,752.759399 
	C651.696960,762.822510 651.227539,773.393311 652.205750,783.538696 
	C654.143921,803.640015 668.148071,811.981689 689.487061,809.677856 
	C703.665649,808.147156 716.411621,802.508789 728.296570,794.983521 
	C767.055481,770.442017 806.564819,747.043274 843.494019,719.696594 
	C845.507385,718.205627 847.878967,717.198425 851.658264,715.085876 
	C851.658264,726.092102 851.852173,735.592102 851.499939,745.071838 
	C851.426697,747.043823 849.720703,749.379883 848.110535,750.807861 
	C808.098755,786.293091 768.056335,821.760376 723.056274,851.010254 
	C704.100159,863.331665 684.909241,875.264099 664.070740,884.283020 
	C647.569885,891.424622 630.448364,894.841919 612.687195,891.233154 
	C586.566650,885.925964 568.968323,869.739929 558.136658,845.879150 
	C549.318604,826.454163 549.046387,805.694702 550.607910,785.079895 
	C553.125244,751.847168 563.759583,720.749756 578.847046,691.262695 
	C594.647217,660.382690 614.146362,631.835938 635.391052,604.423523 
	C664.916443,566.326477 696.908569,530.343567 728.703308,494.177124 
	C735.050110,486.957611 740.673035,479.100098 746.595459,471.509979 
	C748.772827,468.719482 750.100037,465.797455 747.350769,462.549591 
	C744.372681,459.031311 740.941956,459.444733 737.548035,461.646667 
	C729.471069,466.886841 720.937012,471.604401 713.561768,477.709778 
	C692.577698,495.081085 671.635010,512.552185 651.514771,530.903564 
	C630.632385,549.949951 610.038208,569.412170 590.554016,589.869751 
	C555.964844,626.187012 521.331543,662.546570 488.509247,700.441101 
	C446.970215,748.399353 407.288391,797.964111 366.628937,846.688599 
	C360.701935,853.791260 354.408234,860.848816 347.203583,866.565247 
	C335.439087,875.899597 326.097198,873.915100 317.907318,861.431274 
	C310.510742,850.156738 306.236816,837.465393 304.397949,824.323486 
	C302.563232,811.211365 301.808960,797.842041 301.909973,784.595642 
	C302.006409,771.946777 307.868835,760.699280 314.802368,750.475220 
	C328.795837,729.840698 343.122040,709.417542 357.815735,689.275330 
	C386.022278,650.609741 415.618011,612.912537 442.680573,573.470886 
	C466.362335,538.956543 487.614166,502.755463 509.412872,466.978638 
	C517.509094,453.690857 525.334595,439.963654 528.566284,424.471741 
	C529.969971,417.742828 530.289673,410.641266 530.016235,403.752014 
	C529.764771,397.414185 525.850830,394.792450 519.733337,396.308777 
	C515.611145,397.330566 511.552734,399.125183 507.853241,401.248901 
	C490.724030,411.081909 475.983429,424.067413 461.655701,437.460480 
	C408.055817,487.563934 362.482697,544.692688 317.498627,602.358154 
	C271.858643,660.864441 229.621140,721.768188 188.619873,783.561340 
	C176.303085,802.123962 164.238190,820.857849 151.639435,839.226257 
	C148.316406,844.071106 143.858994,848.399536 139.177765,851.995667 
	C129.854401,859.158020 119.474777,858.492371 111.370598,850.180298 
	C107.010971,845.708984 103.002800,840.559204 100.122719,835.043701 
	C91.328804,818.203064 84.874062,800.518127 81.360825,781.687134 
	C78.875603,768.366211 81.577454,757.604492 89.929230,746.564087 
	C125.436340,699.626282 160.455154,652.309326 195.029205,604.678528 
	C223.171021,565.909119 249.047928,525.601868 273.006439,484.097595 
	C286.815857,460.174988 299.964844,435.884460 309.002197,409.675568 
	C311.797943,401.567719 313.599335,393.077423 315.297638,384.649750 
	C315.998413,381.172272 315.709259,377.306854 315.035767,373.777100 
	C313.178070,364.040649 308.346985,359.981934 298.471771,360.127625 
	C293.895691,360.195068 289.193115,360.976440 284.795563,362.273712 
	C264.546234,368.247406 246.110367,378.345795 227.873245,388.621552 
	C181.562744,414.715485 135.688599,441.588287 89.234863,467.421112 
	C73.030670,476.432190 55.691639,483.423767 38.751102,491.072327 
	C35.175259,492.686829 31.110794,493.317505 27.210655,494.097473 
	C13.540497,496.831299 9.970815,495.106384 2.558126,482.395874 
	C2.000000,479.222229 2.000000,476.444427 2.000000,472.833313 
	C4.674643,459.571960 7.271451,447.126526 10.046548,434.720978 
	C12.647734,423.092865 15.346604,411.484772 18.167570,399.908112 
	C21.672382,385.525116 29.987204,373.998230 40.713203,364.271576 
	C62.386578,344.617493 85.864922,327.272858 110.434830,311.422028 
	C113.501419,309.443665 117.221413,308.478180 120.649651,307.038757 
	C123.896362,313.103973 120.649162,315.746521 117.608696,318.293182 
	C111.002945,323.826019 104.137085,329.057007 97.668060,334.741943 
	C90.917107,340.674652 84.431580,346.937439 81.035690,356.817108 
	C80.792023,358.310791 80.937263,358.800598 81.082504,359.290405 
	C81.450661,358.928741 81.818817,358.567108 82.186966,358.205444 
	C100.890076,348.156769 119.374641,337.671692 138.350998,328.168640 
	C162.690735,315.979736 187.120468,303.877197 212.076172,293.037689 
	C237.346191,282.061676 263.138123,272.148254 289.969696,265.472687 
	C300.565948,262.836395 311.317780,260.477203 322.141388,259.206787 
	C331.802368,258.072815 339.637604,263.386353 345.295288,270.646515 
	C361.727051,291.732239 371.982330,316.034180 377.191376,341.922119 
	C380.002716,355.893890 375.963257,370.540771 370.861511,383.873688 
	C361.616333,408.035217 351.952606,432.100952 341.042480,455.545380 
	C326.173370,487.497101 309.960419,518.823120 294.368408,550.439514 
	C293.240936,552.725769 292.477966,555.191772 292.664520,558.630554 
	C294.245789,557.476013 296.120392,556.574341 297.365631,555.130066 
	C333.314392,513.436768 369.047455,471.556580 405.138245,429.986908 
	C442.595001,386.843903 485.312439,349.504059 532.667664,317.635986 
	C547.785278,307.462494 564.067993,298.959747 580.123352,290.256561 
	C598.083313,280.520935 612.018127,284.257721 624.993835,300.096924 
	C638.928223,317.106293 645.028687,336.308105 636.197571,357.594788 
	C627.811279,377.809021 619.609253,398.292694 608.969971,417.341888 
	C580.628479,468.086639 551.114258,518.178650 521.859253,568.409607 
	C511.995880,585.345032 501.510559,601.918213 490.676208,619.490479 
	C489.805847,620.701172 489.639801,621.107544 489.123352,621.807861 
	C488.535645,623.149536 488.369446,624.226257 488.203247,625.302979 
	C489.081879,624.497620 489.960571,623.692261 491.130341,622.721558 
	C491.830292,622.299377 492.070465,621.932068 492.141968,621.454468 
M290.880676,560.088867 
	C290.718719,560.532166 290.556763,560.975403 290.394836,561.418701 
	C290.826233,561.287842 291.257629,561.156921 290.880676,560.088867 
z"/>
<path fill="#CCCC34" opacity="1.000000" stroke="none" 
	d="
M2011.493774,175.455475 
	C1995.266357,186.393311 1978.586548,196.723831 1962.909180,208.400192 
	C1933.762207,230.108826 1907.724609,255.396057 1882.686768,281.642975 
	C1851.456177,314.381531 1823.397095,349.727448 1797.241211,386.654907 
	C1775.682373,417.092438 1756.509521,448.962799 1738.369263,481.482758 
	C1732.875122,491.331909 1728.334106,501.710510 1723.278320,511.807495 
	C1721.078735,516.200195 1718.681885,520.494202 1715.519043,526.442078 
	C1709.040405,515.561340 1703.020752,506.193451 1697.730591,496.430176 
	C1680.503540,464.637177 1667.655029,431.190521 1662.449585,395.263641 
	C1656.307983,352.875763 1661.422852,311.826691 1679.128540,272.585968 
	C1692.116211,243.801865 1710.215942,218.572906 1731.980591,195.793228 
	C1765.890503,160.302200 1805.743042,132.973328 1848.557373,109.486664 
	C1899.221313,81.693863 1952.770386,61.057842 2007.926758,44.370453 
	C2068.821289,25.946966 2130.987549,13.364621 2193.981689,4.750449 
	C2199.578125,3.985157 2205.239990,3.697005 2211.435547,2.593620 
	C2214.777832,2.000000 2217.555664,2.000000 2221.166748,1.999990 
	C2215.309814,8.371895 2208.531982,14.654454 2201.943848,21.130220 
	C2161.161621,61.217350 2134.697754,109.699272 2117.666260,163.887161 
	C2105.077637,203.940384 2097.834961,245.043106 2091.656494,286.434448 
	C2086.077881,323.809723 2080.368652,361.174255 2073.977783,398.416656 
	C2069.187988,426.328796 2061.345947,453.511322 2049.070801,479.133148 
	C2032.909180,512.866821 2008.646484,539.255249 1974.901245,555.889282 
	C1953.610718,566.384033 1930.733398,572.355835 1907.239868,575.949097 
	C1880.459717,580.045227 1853.496826,579.806763 1826.574341,579.149109 
	C1810.995117,578.768494 1795.453247,576.715454 1779.906250,575.287842 
	C1777.339355,575.052246 1774.832764,574.161072 1771.009277,573.273743 
	C1775.069214,562.522583 1778.522095,552.272400 1782.767700,542.361755 
	C1792.178833,520.392944 1801.394653,498.308350 1811.776245,476.795166 
	C1826.509888,446.263458 1841.482666,415.799683 1857.740601,386.065491 
	C1871.595215,360.726501 1886.620483,335.937134 1902.550659,311.845428 
	C1923.813110,279.689880 1946.636963,248.568893 1972.892212,220.197357 
	C1985.959106,206.077393 1999.540283,192.433502 2013.726318,177.724686 
	C2016.861206,175.074509 2019.158569,173.273819 2021.455811,171.473114 
	C2019.316772,170.606873 2018.211060,171.083298 2017.200317,171.712433 
	C2015.269531,172.914185 2013.392944,174.202911 2011.493774,175.455475 
z"/>
<path fill="#EFA41C" opacity="1.000000" stroke="none" 
	d="
M1102.033569,1935.944824 
	C1071.252197,1933.200317 1040.663330,1929.229126 1010.510132,1922.231079 
	C964.354370,1911.519165 920.054565,1895.756470 877.397034,1875.063599 
	C816.886414,1845.710327 761.539673,1808.658813 711.309326,1764.103638 
	C688.693420,1744.042847 666.652527,1723.217529 645.671265,1701.465454 
	C627.040649,1682.150635 610.233093,1661.077026 592.634399,1640.767944 
	C591.854309,1639.867676 591.208984,1638.850708 589.136963,1636.033813 
	C752.500122,1754.300293 933.545105,1811.315430 1132.273438,1812.648804 
	C1331.909790,1813.988281 1511.612061,1752.283325 1675.331665,1638.898438 
	C1673.753418,1641.101562 1672.333618,1643.441162 1670.572510,1645.486694 
	C1651.718628,1667.387817 1633.229492,1689.621582 1613.832397,1711.032104 
	C1571.425537,1757.840942 1523.314819,1798.108887 1470.664307,1832.902466 
	C1394.205322,1883.429321 1310.984375,1916.938843 1220.209961,1930.865967 
	C1205.468750,1933.127563 1190.500854,1933.911743 1173.890991,1935.659912 
	C1168.152832,1935.965332 1164.139893,1935.742188 1160.176880,1936.089478 
	C1156.755005,1936.389404 1153.390137,1937.338013 1150.000000,1938.000000 
	C1142.614136,1938.000000 1135.228394,1938.000000 1126.445312,1937.304932 
	C1117.376587,1936.388306 1109.705078,1936.166626 1102.033569,1935.944824 
z"/>
<path fill="#EEB246" opacity="1.000000" stroke="none" 
	d="
M3186.041016,661.948303 
	C3185.229736,663.711121 3184.885498,666.045837 3183.535156,667.148499 
	C3169.552979,678.567078 3153.407959,685.338440 3135.627441,687.813721 
	C3113.408447,690.906799 3092.309326,687.331055 3072.074463,677.154236 
	C3034.948486,658.482178 3012.459961,614.425110 3020.692383,573.822205 
	C3029.295410,531.390564 3055.736328,504.625000 3097.173096,494.997650 
	C3146.571045,483.520538 3193.520508,507.773926 3213.907471,553.126526 
	C3216.192871,558.210266 3217.075928,563.924377 3219.304688,569.673096 
	C3220.000000,582.708801 3220.000000,595.417603 3220.000000,609.063232 
	C3216.138672,619.621216 3212.975586,629.607849 3208.193848,638.747437 
	C3204.411621,645.976318 3198.805176,652.296021 3193.654785,658.736084 
	C3192.107422,660.670837 3189.370361,661.653992 3186.707031,661.894592 
	C3206.328857,640.538574 3218.184814,617.091003 3217.187012,587.736572 
	C3216.339844,562.805481 3207.263672,541.507019 3189.712158,524.465271 
	C3154.419434,490.198364 3102.682861,486.583588 3062.692627,514.597412 
	C3027.618896,539.167236 3013.904297,584.826416 3029.507324,624.316345 
	C3050.099365,676.433289 3112.378662,700.036255 3163.037109,675.360291 
	C3170.994629,671.484009 3178.387207,666.448059 3186.041016,661.948303 
z"/>
<path fill="#F9E0B3" opacity="1.000000" stroke="none" 
	d="
M1102.033447,1936.458740 
	C1109.705078,1936.166626 1117.376587,1936.388306 1125.524048,1937.304932 
	C1118.614136,1938.000000 1111.228394,1938.000000 1102.921265,1938.000000 
	C1102.011108,1937.657593 1102.022095,1937.315063 1102.033447,1936.458740 
z"/>
<path fill="#F8E0B3" opacity="1.000000" stroke="none" 
	d="
M1150.921265,1938.000000 
	C1153.390137,1937.338013 1156.755005,1936.389404 1160.176880,1936.089478 
	C1164.139893,1935.742188 1168.152832,1935.965332 1173.057251,1935.946289 
	C1173.970337,1936.293091 1173.970337,1936.634521 1173.985107,1937.488037 
	C1166.614136,1938.000000 1159.228394,1938.000000 1150.921265,1938.000000 
z"/>
<path fill="#CCCC34" opacity="1.000000" stroke="none" 
	d="
M1793.715820,1459.994629 
	C1792.626587,1422.561035 1795.937988,1386.615967 1805.658081,1351.378662 
	C1817.994629,1306.655518 1840.430054,1268.146729 1875.989624,1237.864258 
	C1904.789062,1213.338745 1938.108276,1198.146240 1975.350098,1192.127441 
	C2015.920410,1185.570679 2056.278564,1187.054077 2095.879883,1198.701416 
	C2116.823730,1204.861328 2135.895752,1215.220947 2153.182129,1228.416992 
	C2165.568115,1237.872070 2177.025391,1248.546631 2188.861328,1258.718506 
	C2191.307617,1260.820801 2193.596680,1263.106445 2197.202393,1266.467407 
	C2197.422119,1261.737915 2197.695557,1258.578857 2197.696777,1255.419800 
	C2197.721436,1195.422241 2197.721191,1135.424805 2197.706543,1075.427246 
	C2197.703369,1063.092896 2198.815918,1050.934692 2201.723389,1038.878784 
	C2210.623779,1001.972107 2239.113525,987.518188 2272.808350,991.393677 
	C2306.231689,995.237976 2322.493408,1017.731567 2326.122803,1047.846680 
	C2327.349854,1058.029541 2327.657471,1068.374390 2327.662109,1078.645630 
	C2327.748779,1270.304321 2327.768311,1461.963135 2327.640869,1653.621826 
	C2327.631592,1667.942383 2324.853271,1681.709229 2318.676758,1695.047363 
	C2307.445068,1719.302612 2278.007080,1729.428101 2256.161377,1726.943970 
	C2220.929688,1722.938110 2201.259521,1697.218872 2198.353027,1662.510986 
	C2197.782227,1655.696655 2198.270752,1648.793823 2198.270752,1641.931763 
	C2197.578125,1641.727051 2196.885498,1641.522217 2196.192627,1641.317383 
	C2193.634033,1644.132812 2191.167480,1647.038696 2188.501953,1649.748779 
	C2169.072266,1669.504028 2148.179443,1687.359131 2123.844238,1700.997192 
	C2097.891846,1715.541504 2070.081055,1723.247192 2040.576050,1726.158447 
	C2020.219360,1728.166992 2000.060303,1727.504761 1980.074219,1723.906372 
	C1943.677612,1717.353149 1911.200073,1702.115479 1883.001953,1678.044312 
	C1842.071899,1643.104492 1818.007446,1597.957397 1804.636475,1546.688843 
	C1797.330933,1518.676758 1793.187500,1490.088989 1793.715820,1459.994629 
M2099.919434,1617.407715 
	C2137.993896,1604.063721 2162.065674,1576.976196 2176.499023,1540.094116 
	C2185.323486,1517.543823 2188.977295,1494.071533 2190.010498,1470.126831 
	C2191.498291,1435.633789 2188.132080,1401.800415 2173.981201,1369.787109 
	C2154.243164,1325.134521 2122.425293,1295.383789 2072.403809,1288.838623 
	C2049.078369,1285.786621 2026.700562,1289.714722 2005.822632,1300.690063 
	C1974.709106,1317.045776 1955.877808,1343.701050 1944.141235,1375.936768 
	C1935.430908,1399.860962 1931.894775,1424.643066 1931.562378,1450.140015 
	C1931.178223,1479.613403 1933.731323,1508.474854 1943.907959,1536.342773 
	C1951.881226,1558.177246 1963.124878,1578.254883 1980.911743,1593.340942 
	C2015.379517,1622.574829 2054.920166,1630.289185 2099.919434,1617.407715 
z"/>
<path fill="#CCCC34" opacity="1.000000" stroke="none" 
	d="
M174.380066,1296.001709 
	C255.334641,1296.005737 335.322479,1296.000488 415.310333,1296.010254 
	C431.609985,1296.012207 446.981659,1298.981934 460.411560,1309.151855 
	C471.202240,1317.323364 476.575653,1328.368774 478.102966,1341.356812 
	C478.837372,1347.602173 478.828552,1354.073120 478.119202,1360.324219 
	C475.965424,1379.304077 465.181549,1392.227417 447.835327,1399.158081 
	C436.714874,1403.601196 424.816132,1405.396606 412.678741,1405.383789 
	C335.357239,1405.302612 258.035614,1405.344238 180.714050,1405.345337 
	C176.802216,1405.345459 172.890381,1405.345337 167.725174,1405.345337 
	C167.725174,1410.275757 167.725128,1414.166870 167.725174,1418.058105 
	C167.726044,1493.046753 167.789368,1568.035400 167.670853,1643.023804 
	C167.649261,1656.691406 165.478073,1670.098267 160.580902,1682.972656 
	C151.045197,1708.041138 132.361465,1721.751221 106.436005,1725.950806 
	C83.762718,1729.623657 62.990368,1725.321411 44.748566,1710.404419 
	C34.796677,1702.266235 29.017307,1691.666260 24.598076,1680.089966 
	C19.918131,1667.830566 18.381172,1654.867432 18.370895,1641.920288 
	C18.224047,1456.948486 18.168285,1271.976440 18.505823,1087.005249 
	C18.527287,1075.243652 21.057262,1063.256592 23.995325,1051.777588 
	C30.533091,1026.234619 48.610409,1012.098328 73.437943,1006.581055 
	C84.703209,1004.077698 96.490860,1002.906189 108.045410,1002.880676 
	C225.693604,1002.620483 343.342865,1002.617432 460.990936,1002.904663 
	C471.153290,1002.929443 481.597412,1004.485107 491.410553,1007.162537 
	C514.524780,1013.468994 527.381836,1029.859497 529.355286,1053.179443 
	C531.168579,1074.607056 524.265259,1093.506958 504.698700,1105.210327 
	C490.914093,1113.455322 475.321014,1115.325928 459.512604,1115.328857 
	C366.526733,1115.346802 273.540894,1115.337036 180.555023,1115.336548 
	C176.655930,1115.336548 172.756821,1115.336548 168.382141,1115.336548 
	C168.107880,1119.047974 167.752151,1121.629639 167.750610,1124.211548 
	C167.718277,1178.536621 167.703735,1232.861694 167.771957,1287.186768 
	C167.776886,1291.117065 166.010971,1296.615356 174.380066,1296.001709 
z"/>
<path fill="#EFA41C" opacity="1.000000" stroke="none" 
	d="
M1459.816650,382.209778 
	C1464.583008,383.264709 1469.606079,383.680847 1474.074463,385.477051 
	C1505.864624,398.256042 1532.427979,418.119843 1554.268188,444.577118 
	C1580.247437,476.048676 1597.658325,512.121216 1611.756470,549.985535 
	C1624.870972,585.207825 1634.413696,621.522827 1644.012573,657.815857 
	C1649.699585,679.318176 1655.768188,700.719727 1661.722290,722.150757 
	C1662.196411,723.856567 1663.117188,725.438171 1663.940918,727.331482 
	C1669.150635,706.182495 1673.767700,685.642273 1679.303101,665.352722 
	C1689.990234,626.181458 1704.958862,588.558228 1721.635376,551.587585 
	C1746.026245,497.514374 1775.097046,446.039734 1808.028564,396.752472 
	C1833.555908,358.546753 1861.413574,322.145264 1894.189575,289.768524 
	C1901.141724,282.901001 1908.783325,276.731506 1917.463989,271.488739 
	C1912.119019,279.177124 1906.899048,286.956024 1901.407349,294.538177 
	C1877.747681,327.204590 1858.017578,362.267303 1838.822876,397.623962 
	C1818.033569,435.918396 1799.328369,475.252350 1782.316284,515.366089 
	C1754.257446,581.527954 1730.135864,649.054688 1714.716675,719.369202 
	C1707.828369,750.781921 1702.814697,782.510437 1701.491943,814.846008 
	C1699.932373,852.967712 1696.242920,890.927490 1686.083252,927.976685 
	C1675.234375,967.539001 1659.020630,1004.399292 1632.498413,1036.118286 
	C1613.620239,1058.695190 1589.501953,1073.362305 1561.543335,1082.040649 
	C1531.765747,1091.283569 1501.212280,1094.626587 1470.138306,1095.342896 
	C1425.486328,1096.372192 1381.216553,1092.473999 1337.110596,1086.287231 
	C1300.918701,1081.210693 1264.762329,1075.818481 1228.697510,1069.911865 
	C1180.493896,1062.017212 1132.454956,1053.108398 1084.227539,1045.369385 
	C1052.094238,1040.213013 1019.826172,1035.706421 987.487122,1032.079346 
	C959.450867,1028.934814 931.230591,1027.428223 903.090515,1025.212524 
	C859.422485,1021.774109 815.995605,1024.490112 773.075012,1032.527466 
	C730.760620,1040.451172 691.369995,1055.824219 657.975586,1084.110474 
	C657.493408,1084.518921 656.843018,1084.728760 655.294128,1085.548218 
	C628.640320,1061.886353 601.710266,1037.979248 573.744263,1013.152527 
	C585.418091,1006.279602 595.495056,999.900330 605.968445,994.256714 
	C655.088440,967.788574 707.897034,952.199402 762.510864,942.380310 
	C802.445007,935.200500 842.717712,930.676758 883.342407,930.007324 
	C914.294006,929.497253 945.283569,928.077148 976.193054,929.055786 
	C1012.341309,930.200195 1048.482422,932.822876 1084.514893,936.052307 
	C1129.149292,940.052551 1173.719238,944.911194 1218.222534,950.195251 
	C1254.165283,954.462952 1289.948242,960.062317 1325.838623,964.793579 
	C1362.387085,969.611694 1398.964600,974.219543 1435.558838,978.677795 
	C1465.306396,982.301880 1495.203491,983.597839 1525.146729,982.648010 
	C1535.064941,982.333374 1545.065063,981.226990 1554.802368,979.327576 
	C1571.928589,975.986755 1583.805664,965.193604 1592.207275,950.328064 
	C1600.489258,935.674377 1604.837036,919.651855 1607.651855,903.228760 
	C1611.995728,877.885559 1612.867920,852.229919 1611.492554,826.670837 
	C1609.263184,785.245178 1603.769165,744.160278 1595.582397,703.452576 
	C1586.732300,659.446472 1575.478760,616.057800 1561.346924,573.475586 
	C1548.359009,534.339722 1533.537354,495.877686 1514.499146,459.201935 
	C1502.536377,436.156586 1489.516846,413.750153 1471.840942,394.461090 
	C1468.259766,390.553131 1464.258423,387.030243 1460.162842,382.733093 
	C1459.875122,382.136383 1459.816650,382.209778 1459.816650,382.209778 
z"/>
<path fill="#EFA31B" opacity="1.000000" stroke="none" 
	d="
M623.967102,1323.977417 
	C635.310608,1291.270996 653.304688,1263.402710 677.204529,1239.869507 
	C715.524231,1202.137329 761.657471,1179.043213 815.223694,1172.198364 
	C832.967224,1169.931152 851.022034,1168.588013 868.881714,1169.017700 
	C929.984619,1170.487793 985.325012,1188.661255 1031.661255,1229.726074 
	C1076.258667,1269.250122 1102.052490,1318.715698 1108.423096,1378.271973 
	C1112.028931,1411.983887 1110.441772,1445.253906 1101.941772,1478.050537 
	C1092.249146,1515.448486 1073.920776,1548.048462 1047.122192,1576.057739 
	C1028.058105,1595.982910 1006.651489,1612.686890 982.154114,1625.129028 
	C957.392273,1637.705322 931.011902,1645.726196 903.428589,1649.305786 
	C863.473083,1654.490845 823.654846,1653.889404 784.720886,1642.709839 
	C709.026001,1620.974487 655.189575,1574.210693 625.637024,1500.686157 
	C617.421021,1480.245361 613.436218,1458.781860 611.494751,1436.775024 
	C608.120850,1398.530640 611.228149,1361.157104 623.967102,1323.977417 
M791.694702,1493.157104 
	C798.180176,1501.101318 803.845947,1509.931152 811.299500,1516.829468 
	C837.365540,1540.953613 881.417480,1541.012695 907.255066,1517.718994 
	C924.865967,1501.841919 935.747070,1481.997070 941.661743,1459.278198 
	C948.349731,1433.588501 949.419983,1407.551392 945.653503,1381.332275 
	C942.092468,1356.543091 933.913635,1333.534668 917.505188,1314.182373 
	C898.885498,1292.221924 875.295288,1282.419800 846.530212,1287.382080 
	C821.042908,1291.778809 803.700745,1307.538086 791.068420,1329.131714 
	C778.556763,1350.519165 773.156799,1374.011719 771.998474,1398.503906 
	C770.452942,1431.180298 774.028320,1462.929321 791.694702,1493.157104 
z"/>
<path fill="#EFA31B" opacity="1.000000" stroke="none" 
	d="
M1667.755981,1459.568970 
	C1662.277954,1489.152954 1652.446533,1516.249756 1636.477661,1540.758545 
	C1598.123657,1599.623413 1543.937256,1635.296509 1475.000366,1647.760010 
	C1433.007812,1655.351929 1390.830811,1654.314209 1349.320312,1643.780029 
	C1309.608154,1633.702271 1274.739258,1614.513550 1244.976562,1586.092041 
	C1224.828735,1566.851807 1207.794922,1545.372925 1195.600098,1520.263062 
	C1183.892334,1496.156250 1176.190063,1470.729370 1173.951782,1444.044556 
	C1172.401123,1425.557495 1171.286621,1406.803467 1172.584473,1388.352051 
	C1176.204224,1336.888306 1193.721924,1290.665894 1228.290527,1251.584595 
	C1271.052490,1203.240234 1325.071045,1177.072021 1388.840820,1170.486938 
	C1438.283447,1165.381348 1486.798218,1169.986938 1532.272705,1190.827881 
	C1604.910767,1224.118164 1651.286987,1279.729004 1667.303101,1358.692505 
	C1674.011597,1391.766602 1673.720825,1425.333862 1667.755981,1459.568970 
M1467.928345,1302.947388 
	C1439.864380,1280.534424 1402.628784,1280.045288 1375.074707,1302.404541 
	C1358.897217,1315.532104 1348.619141,1332.985352 1342.167725,1352.637085 
	C1331.665527,1384.627686 1331.165649,1417.255493 1337.125488,1450.069580 
	C1341.692383,1475.214355 1352.529175,1497.140259 1371.182983,1515.194092 
	C1395.658203,1538.882202 1437.762207,1541.730957 1464.743652,1521.051514 
	C1478.833740,1510.252197 1488.866211,1496.370117 1495.984985,1480.352295 
	C1503.613403,1463.187012 1506.846924,1445.073608 1508.605713,1426.329346 
	C1511.041382,1400.372070 1508.157715,1375.313477 1499.808716,1350.896362 
	C1493.601685,1332.744385 1483.769409,1316.626587 1467.928345,1302.947388 
z"/>
<path fill="#CCCC34" opacity="1.000000" stroke="none" 
	d="
M2786.284668,1423.770020 
	C2815.449219,1434.217651 2841.937500,1448.045166 2864.312988,1468.505371 
	C2888.413818,1490.542847 2902.211670,1517.538086 2902.459717,1551.104492 
	C2902.659424,1578.147705 2898.805664,1604.023193 2886.813721,1628.484131 
	C2872.537354,1657.604248 2850.412354,1678.883789 2822.134277,1694.180054 
	C2790.009033,1711.557617 2755.341309,1720.448975 2719.290283,1723.845093 
	C2697.491455,1725.898682 2675.514160,1727.401855 2653.646729,1727.086426 
	C2614.929688,1726.528198 2576.773682,1721.133179 2540.544922,1706.557007 
	C2513.838379,1695.812012 2488.773682,1682.183228 2468.683838,1660.893311 
	C2452.832764,1644.095215 2440.724854,1624.814941 2436.913330,1601.993042 
	C2432.477539,1575.431152 2435.184814,1555.195190 2461.611328,1539.005127 
	C2483.165771,1525.799927 2519.488037,1527.335327 2535.561035,1552.499146 
	C2541.641357,1562.018677 2547.786133,1571.502930 2554.138184,1580.842285 
	C2572.310303,1607.560425 2595.572510,1627.444824 2627.767578,1635.244019 
	C2649.328125,1640.467041 2671.269531,1641.247192 2693.181396,1639.586670 
	C2709.488770,1638.350708 2725.218750,1633.851196 2739.320068,1625.012329 
	C2742.687988,1622.901245 2745.682129,1620.202148 2748.986572,1617.979370 
	C2780.438477,1596.825195 2771.370850,1548.709595 2741.965576,1532.455200 
	C2723.186523,1522.074707 2703.155762,1515.142822 2682.614502,1509.551758 
	C2660.183105,1503.446045 2637.594727,1497.920776 2615.114746,1491.990234 
	C2584.867676,1484.010620 2554.951660,1474.629639 2526.820557,1461.055420 
	C2499.401123,1447.824585 2474.732422,1430.331299 2457.940674,1403.760742 
	C2450.548096,1392.063354 2445.796875,1379.499023 2443.520752,1365.906738 
	C2436.248779,1322.477905 2446.914062,1284.190430 2476.454834,1251.389282 
	C2499.598389,1225.691406 2528.945068,1210.081055 2561.484619,1199.903198 
	C2587.056885,1191.904785 2613.301758,1188.195557 2640.100342,1187.967896 
	C2670.074463,1187.713379 2699.986572,1187.936768 2729.539062,1193.948120 
	C2767.025635,1201.573364 2802.752197,1213.331421 2833.500732,1237.191406 
	C2850.354248,1250.269287 2863.773682,1265.969238 2871.946289,1285.864990 
	C2876.772949,1297.615356 2877.854492,1309.930298 2875.190186,1322.104614 
	C2871.201904,1340.328979 2860.062256,1352.739502 2841.925293,1358.356079 
	C2825.593262,1363.413696 2809.303955,1363.968262 2792.942139,1358.310791 
	C2780.507812,1354.011353 2771.880859,1344.779175 2763.163818,1335.718140 
	C2750.522949,1322.578735 2738.703125,1308.596069 2725.484375,1296.080811 
	C2709.895020,1281.321167 2690.181396,1275.507812 2669.079834,1273.899048 
	C2646.610107,1272.186279 2624.428223,1273.157959 2603.447021,1282.306641 
	C2590.454102,1287.972168 2579.493896,1296.112671 2572.125000,1308.943726 
	C2562.970947,1324.883301 2569.203369,1347.090698 2583.568604,1358.071045 
	C2599.200928,1370.019653 2616.986816,1377.208008 2635.760254,1382.126099 
	C2674.337891,1392.232422 2713.043213,1401.855713 2751.579834,1412.113403 
	C2763.098877,1415.179443 2774.232910,1419.691650 2786.284668,1423.770020 
z"/>
<path fill="#EFA41C" opacity="1.000000" stroke="none" 
	d="
M2819.686035,475.516113 
	C2827.393066,473.146667 2834.295654,470.615082 2841.415771,469.120270 
	C2848.172852,467.701660 2853.748291,470.191284 2857.549561,476.382355 
	C2866.410156,490.813416 2870.960449,506.734650 2873.693115,523.216980 
	C2874.880127,530.378296 2875.062012,537.706055 2875.708984,544.957397 
	C2876.395020,552.650757 2874.067871,559.582947 2869.282471,565.359558 
	C2860.178955,576.347961 2850.765137,587.087402 2841.259033,597.732666 
	C2812.259033,630.208374 2783.309814,662.754089 2760.975342,700.385071 
	C2753.201172,713.483643 2745.534424,726.869202 2743.258545,742.401489 
	C2743.163086,743.051819 2742.750244,743.662354 2742.690918,744.310303 
	C2740.930420,763.452209 2747.557617,779.297852 2773.593018,773.175049 
	C2787.029053,770.015198 2798.978516,763.225159 2810.116455,755.377747 
	C2836.750244,736.612671 2863.056885,717.383972 2889.489258,698.333252 
	C2891.860107,696.624512 2894.182617,694.848389 2898.060547,691.962891 
	C2898.155029,701.809448 2897.587402,710.291199 2898.477051,718.617188 
	C2899.642822,729.529114 2895.833008,737.280273 2887.775635,744.648926 
	C2844.406494,784.310852 2802.677734,825.827332 2755.635498,861.306030 
	C2739.677002,873.341858 2723.011475,884.424683 2703.052490,888.889648 
	C2683.710938,893.216492 2665.845947,890.798889 2652.153564,874.979370 
	C2642.799805,864.172546 2640.866699,850.574402 2639.637939,836.818726 
	C2636.720215,804.160889 2647.594238,775.116272 2663.451416,747.663513 
	C2687.888184,705.356873 2713.001221,663.440857 2737.823975,621.357117 
	C2739.080811,619.226013 2740.303467,617.075134 2741.541992,614.933350 
	C2741.047607,614.437195 2740.553223,613.941101 2740.058838,613.444946 
	C2731.644287,619.061707 2722.712891,624.047058 2714.921143,630.424744 
	C2697.960938,644.307251 2681.396973,658.692200 2665.031250,673.276001 
	C2654.611816,682.561035 2644.702881,692.434875 2634.801514,702.282288 
	C2606.698975,730.231140 2583.145264,762.028992 2558.350586,792.786621 
	C2542.515869,812.429565 2526.241211,831.721985 2509.935303,850.978149 
	C2505.131104,856.651611 2498.781494,860.167480 2491.403564,862.069092 
	C2481.945312,864.506836 2474.506348,861.355225 2467.905029,854.947998 
	C2458.356201,845.679871 2453.067871,833.828430 2448.151611,821.825439 
	C2439.913818,801.713074 2435.014404,780.770386 2433.727051,759.064697 
	C2432.999756,746.803589 2432.496582,734.516846 2432.349121,722.236206 
	C2432.083984,700.169067 2437.434082,679.473755 2448.757568,660.469177 
	C2472.444580,620.714233 2498.585693,582.660217 2529.282715,547.965820 
	C2542.293213,533.261169 2556.571533,519.781738 2574.840820,511.294556 
	C2591.010254,503.783020 2607.360840,503.265778 2624.320312,507.966248 
	C2647.330322,514.343811 2649.039062,534.793701 2639.281250,548.461609 
	C2632.359863,558.156555 2624.355469,567.162720 2616.183838,575.865295 
	C2588.653320,605.184692 2561.722412,635.029358 2538.739990,668.097656 
	C2531.411621,678.642273 2525.781738,690.465271 2520.281006,702.130615 
	C2518.281250,706.371033 2518.147217,711.915039 2518.514893,716.761536 
	C2519.325195,727.438110 2527.816650,731.602295 2535.856689,724.739929 
	C2546.671143,715.509399 2556.834717,705.418030 2566.544678,695.012085 
	C2585.817139,674.357910 2604.479004,653.135803 2623.591309,632.330017 
	C2654.692871,598.472412 2688.593262,567.567810 2724.760742,539.268677 
	C2754.621094,515.904358 2785.110596,493.303680 2819.686035,475.516113 
z"/>
<path fill="#EFA41C" opacity="1.000000" stroke="none" 
	d="
M2153.337891,897.256836 
	C2119.896973,900.291687 2090.201416,893.836670 2065.266602,871.389526 
	C2044.426025,852.628418 2032.381958,828.583618 2026.509399,801.840393 
	C2015.492676,751.670898 2017.768066,702.167969 2038.469727,654.435791 
	C2050.508545,626.677612 2068.468018,602.869507 2088.470703,580.391785 
	C2110.436035,555.708008 2135.261230,534.195923 2161.148926,513.871460 
	C2198.938477,484.203125 2240.402588,461.628021 2287.618408,450.917480 
	C2306.522461,446.629272 2325.615479,444.859528 2344.878662,449.615479 
	C2375.516846,457.179962 2385.289307,477.040527 2384.157471,502.624695 
	C2382.968994,529.494446 2371.805176,552.656677 2355.458984,573.438293 
	C2332.730469,602.334045 2303.972900,624.351501 2273.154785,643.785156 
	C2229.441162,671.350891 2182.884033,693.270447 2134.935059,712.343628 
	C2131.847900,713.571472 2128.806152,714.916748 2125.772217,716.271606 
	C2125.223877,716.516418 2124.814941,717.074097 2123.988281,717.795776 
	C2123.200195,733.159485 2123.225830,748.758911 2128.671875,763.770935 
	C2138.824219,791.755920 2162.361816,806.307129 2192.479736,804.649109 
	C2219.185791,803.178894 2243.548096,794.129456 2267.239990,782.139160 
	C2303.769531,763.651794 2335.112061,737.908020 2366.974854,712.824646 
	C2374.149658,707.176331 2381.156738,701.315369 2390.251709,693.916748 
	C2390.251709,707.466370 2390.531494,718.611450 2390.042969,729.722656 
	C2389.929443,732.306091 2387.565430,735.108215 2385.616455,737.243286 
	C2369.047363,755.393616 2352.864502,773.940247 2335.539307,791.346558 
	C2310.422363,816.581177 2283.727295,840.178650 2254.039795,859.982361 
	C2223.793213,880.158875 2191.041992,894.228455 2153.337891,897.256836 
M2200.546143,641.593750 
	C2225.735840,625.175293 2248.319824,605.721375 2267.928711,582.934753 
	C2280.557129,568.259705 2291.065430,552.199097 2297.075684,533.572937 
	C2298.997070,527.618103 2299.397217,521.621948 2294.434814,516.824341 
	C2289.722168,512.268311 2283.776123,513.240479 2278.470947,515.004333 
	C2270.938477,517.508789 2263.396973,520.378906 2256.443115,524.164612 
	C2225.259766,541.139832 2197.569092,562.595703 2174.437012,589.700623 
	C2155.503906,611.885498 2140.256104,636.122009 2132.796875,664.671509 
	C2131.865479,668.236694 2131.227051,671.878357 2130.143311,676.925781 
	C2155.629639,667.231628 2178.035400,655.929138 2200.546143,641.593750 
z"/>
<path fill="#CCCC34" opacity="1.000000" stroke="none" 
	d="
M1251.519043,358.535370 
	C1237.172729,338.367584 1221.370605,320.539581 1202.470215,305.555573 
	C1183.823853,290.772827 1163.073975,279.792694 1140.730347,270.136444 
	C1151.799683,267.506470 1162.769653,264.306305 1173.958008,262.360016 
	C1200.779175,257.694366 1227.655151,253.282623 1254.605347,249.445343 
	C1268.045166,247.531754 1281.681274,246.437469 1295.255005,246.126770 
	C1340.877930,245.082474 1386.417603,245.822952 1431.173584,256.448181 
	C1470.426392,265.767029 1507.313843,280.180664 1538.376099,306.868988 
	C1566.981567,331.446655 1584.168335,362.491913 1590.072632,399.707123 
	C1593.794312,423.165009 1593.201660,446.638733 1589.780029,471.240967 
	C1587.657715,469.463074 1585.894775,468.536438 1584.915161,467.082062 
	C1572.264648,448.298553 1557.918335,431.002228 1542.355591,414.483032 
	C1494.047852,363.205597 1435.334351,330.146484 1367.598022,312.328430 
	C1367.042480,312.182312 1366.347900,312.565155 1365.171875,312.818909 
	C1374.883545,320.251251 1384.577148,327.145721 1393.686646,334.740784 
	C1419.813843,356.524353 1442.697754,381.379578 1462.921387,408.737000 
	C1487.293579,441.706268 1507.963379,476.950562 1527.510620,512.900146 
	C1531.147217,519.588257 1534.731567,526.304688 1538.926880,534.098083 
	C1534.900757,536.203674 1531.261841,538.314758 1527.456177,540.063049 
	C1504.755981,550.490845 1481.480225,559.278137 1456.631470,562.958557 
	C1420.410278,568.323364 1387.738403,560.626099 1360.684814,534.910278 
	C1348.114746,522.961548 1337.853149,508.903992 1329.173096,493.941162 
	C1317.344238,473.550079 1306.144531,452.785583 1295.014404,431.999512 
	C1281.676758,407.090942 1268.350464,382.194946 1251.519043,358.535370 
z"/>
<path fill="#EFA41C" opacity="1.000000" stroke="none" 
	d="
M1153.703369,756.646729 
	C1150.446777,762.399414 1147.563232,767.589111 1143.891846,772.143616 
	C1126.764282,793.390808 1108.062622,813.245483 1088.120239,831.821716 
	C1065.433350,852.954346 1041.242065,872.302856 1011.852173,883.498230 
	C985.577393,893.506958 960.003906,892.446594 937.900818,873.365051 
	C930.567993,867.034790 924.654602,858.334656 920.082520,849.668030 
	C906.286987,823.517761 899.713562,795.390076 897.386536,765.811096 
	C895.260132,738.783081 897.899658,712.692200 908.118958,687.849365 
	C913.887329,673.826599 921.853516,660.552124 930.037170,647.710022 
	C948.831848,618.216675 969.836548,590.401855 995.473816,566.330078 
	C1008.683472,553.927063 1023.264832,543.742249 1039.890747,536.439758 
	C1052.463257,530.917725 1065.710327,529.404663 1078.999146,531.099121 
	C1100.244873,533.808289 1106.704712,547.538025 1100.237793,566.277161 
	C1094.761475,582.145630 1086.607178,597.283447 1078.149780,611.882507 
	C1066.637451,631.755127 1052.580566,649.665527 1035.282227,665.292480 
	C1017.586792,681.278198 1001.190979,698.775208 984.985352,716.312134 
	C973.931274,728.274292 969.557739,743.142151 971.749939,759.482971 
	C973.973328,776.056519 986.922363,789.914062 1003.527588,793.970886 
	C1023.544373,798.861206 1042.379761,795.159180 1060.613892,786.353271 
	C1084.142212,774.990479 1104.824829,759.366516 1125.370850,743.526123 
	C1134.306519,736.636963 1143.115356,729.583252 1152.921387,721.864685 
	C1154.371582,727.921326 1153.531006,733.423950 1153.680664,738.804749 
	C1153.837891,744.462769 1153.714355,750.128662 1153.703369,756.646729 
z"/>
<path fill="#EFA41D" opacity="1.000000" stroke="none" 
	d="
M1091.112549,484.894592 
	C1079.613037,474.704407 1077.891846,462.442657 1080.980591,448.959198 
	C1084.795288,432.307953 1094.103027,418.742188 1104.933105,405.915344 
	C1113.921631,395.269470 1124.152344,386.717346 1137.877075,383.048523 
	C1156.927856,377.955933 1177.341919,387.359283 1183.081665,404.314056 
	C1186.939331,415.709198 1186.132202,427.419617 1181.572632,438.324799 
	C1173.793213,456.930847 1162.859009,473.482178 1145.870483,485.138947 
	C1134.578735,492.886810 1122.225464,497.810059 1108.394531,493.783234 
	C1102.505737,492.068756 1097.238892,488.217865 1091.112549,484.894592 
z"/>
<path fill="#EFA41C" opacity="1.000000" stroke="none" 
	d="
M1459.913208,382.113251 
	C1459.951294,382.090118 1459.445679,381.501251 1459.445679,381.501251 
	C1459.445679,381.501251 1459.832642,381.771393 1459.824707,381.990601 
	C1459.816650,382.209778 1459.875122,382.136383 1459.913208,382.113251 
z"/>
<path fill="#F6D7A1" opacity="1.000000" stroke="none" 
	d="
M490.839233,622.886902 
	C489.960571,623.692261 489.081879,624.497620 488.203247,625.302979 
	C488.369446,624.226257 488.535645,623.149536 489.447205,622.143616 
	C490.192535,622.214417 490.839233,622.886902 490.839233,622.886902 
z"/>
<path fill="#FFFFFF" opacity="1.000000" stroke="none" 
	d="
M291.284851,560.557434 
	C291.257629,561.156921 290.826233,561.287842 290.394836,561.418701 
	C290.556763,560.975403 290.718719,560.532166 291.284851,560.557434 
z"/>
<path fill="#FFFFFF" opacity="1.000000" stroke="none" 
	d="
M81.950821,357.954956 
	C81.818817,358.567108 81.450661,358.928741 81.082504,359.290405 
	C80.937263,358.800598 80.792023,358.310791 80.941498,357.515137 
	C81.236229,357.209320 81.714676,357.704468 81.950821,357.954956 
z"/>
<path fill="#F6D7A1" opacity="1.000000" stroke="none" 
	d="
M489.868683,621.878662 
	C489.639801,621.107544 489.805847,620.701172 490.317993,620.143677 
	C490.953339,620.104431 491.313690,620.245361 491.907959,620.920349 
	C492.070465,621.932068 491.830292,622.299377 491.130341,622.721558 
	C490.839233,622.886902 490.192535,622.214417 489.868683,621.878662 
z"/>
<path fill="#FFFFFF" opacity="1.000000" stroke="none" 
	d="
M2011.955078,175.955139 
	C2013.392944,174.202911 2015.269531,172.914185 2017.200317,171.712433 
	C2018.211060,171.083298 2019.316772,170.606873 2021.455811,171.473114 
	C2019.158569,173.273819 2016.861206,175.074509 2013.999756,177.115387 
	C2013.095703,177.055313 2012.755981,176.755051 2011.955078,175.955139 
z"/>
<path fill="#FFFEFD" opacity="1.000000" stroke="none" 
	d="
M3186.011230,661.972168 
	C3178.387207,666.448059 3170.994629,671.484009 3163.037109,675.360291 
	C3112.378662,700.036255 3050.099365,676.433289 3029.507324,624.316345 
	C3013.904297,584.826416 3027.618896,539.167236 3062.692627,514.597412 
	C3102.682861,486.583588 3154.419434,490.198364 3189.712158,524.465271 
	C3207.263672,541.507019 3216.339844,562.805481 3217.187012,587.736572 
	C3218.184814,617.091003 3206.328857,640.538574 3186.081299,661.383057 
	C3185.926758,662.049866 3185.981445,661.995972 3186.011230,661.972168 
M3117.109863,598.961731 
	C3121.313232,603.617615 3125.894043,607.992188 3129.625244,613.000000 
	C3134.375244,619.374756 3138.652588,626.134277 3142.706543,632.980957 
	C3144.811279,636.535461 3147.194824,638.480713 3151.421875,638.071228 
	C3154.865723,637.737732 3158.339600,637.715393 3163.343506,637.483521 
	C3157.745850,628.946106 3153.274170,621.664734 3148.331543,614.718506 
	C3143.452148,607.861511 3138.097168,601.343262 3133.361572,595.208618 
	C3137.657471,593.040955 3142.631592,591.517334 3146.343750,588.461121 
	C3155.170166,581.194580 3157.302002,571.594238 3153.987549,560.681519 
	C3151.122559,551.248535 3142.638184,544.344482 3131.492188,544.105652 
	C3114.212646,543.735413 3096.916016,544.148682 3079.626953,544.298157 
	C3079.110840,544.302612 3078.601562,545.073364 3078.091797,545.490356 
	C3076.374268,570.149719 3077.165771,630.571838 3079.220703,637.432617 
	C3083.174072,637.432617 3087.042236,637.432617 3091.753174,637.432617 
	C3091.753174,630.273682 3091.753174,623.687378 3091.753174,617.101013 
	C3091.753174,610.255615 3091.753174,603.410156 3091.753174,595.072388 
	C3100.790771,596.271790 3108.246094,597.261230 3117.109863,598.961731 
z"/>
<path fill="#FFFFFE" opacity="1.000000" stroke="none" 
	d="
M2099.148438,1617.643555 
	C2054.920166,1630.289185 2015.379517,1622.574829 1980.911743,1593.340942 
	C1963.124878,1578.254883 1951.881226,1558.177246 1943.907959,1536.342773 
	C1933.731323,1508.474854 1931.178223,1479.613403 1931.562378,1450.140015 
	C1931.894775,1424.643066 1935.430908,1399.860962 1944.141235,1375.936768 
	C1955.877808,1343.701050 1974.709106,1317.045776 2005.822632,1300.690063 
	C2026.700562,1289.714722 2049.078369,1285.786621 2072.403809,1288.838623 
	C2122.425293,1295.383789 2154.243164,1325.134521 2173.981201,1369.787109 
	C2188.132080,1401.800415 2191.498291,1435.633789 2190.010498,1470.126831 
	C2188.977295,1494.071533 2185.323486,1517.543823 2176.499023,1540.094116 
	C2162.065674,1576.976196 2137.993896,1604.063721 2099.148438,1617.643555 
z"/>
<path fill="#FFFFFE" opacity="1.000000" stroke="none" 
	d="
M791.267578,1492.555664 
	C774.028320,1462.929321 770.452942,1431.180298 771.998474,1398.503906 
	C773.156799,1374.011719 778.556763,1350.519165 791.068420,1329.131714 
	C803.700745,1307.538086 821.042908,1291.778809 846.530212,1287.382080 
	C875.295288,1282.419800 898.885498,1292.221924 917.505188,1314.182373 
	C933.913635,1333.534668 942.092468,1356.543091 945.653503,1381.332275 
	C949.419983,1407.551392 948.349731,1433.588501 941.661743,1459.278198 
	C935.747070,1481.997070 924.865967,1501.841919 907.255066,1517.718994 
	C881.417480,1541.012695 837.365540,1540.953613 811.299500,1516.829468 
	C803.845947,1509.931152 798.180176,1501.101318 791.267578,1492.555664 
z"/>
<path fill="#FFFFFE" opacity="1.000000" stroke="none" 
	d="
M1468.440674,1303.454834 
	C1483.769409,1316.626587 1493.601685,1332.744385 1499.808716,1350.896362 
	C1508.157715,1375.313477 1511.041382,1400.372070 1508.605713,1426.329346 
	C1506.846924,1445.073608 1503.613403,1463.187012 1495.984985,1480.352295 
	C1488.866211,1496.370117 1478.833740,1510.252197 1464.743652,1521.051514 
	C1437.762207,1541.730957 1395.658203,1538.882202 1371.182983,1515.194092 
	C1352.529175,1497.140259 1341.692383,1475.214355 1337.125488,1450.069580 
	C1331.165649,1417.255493 1331.665527,1384.627686 1342.167725,1352.637085 
	C1348.619141,1332.985352 1358.897217,1315.532104 1375.074707,1302.404541 
	C1402.628784,1280.045288 1439.864380,1280.534424 1468.440674,1303.454834 
z"/>
<path fill="#FFFEFD" opacity="1.000000" stroke="none" 
	d="
M2199.938477,641.985840 
	C2178.035400,655.929138 2155.629639,667.231628 2130.143311,676.925781 
	C2131.227051,671.878357 2131.865479,668.236694 2132.796875,664.671509 
	C2140.256104,636.122009 2155.503906,611.885498 2174.437012,589.700623 
	C2197.569092,562.595703 2225.259766,541.139832 2256.443115,524.164612 
	C2263.396973,520.378906 2270.938477,517.508789 2278.470947,515.004333 
	C2283.776123,513.240479 2289.722168,512.268311 2294.434814,516.824341 
	C2299.397217,521.621948 2298.997070,527.618103 2297.075684,533.572937 
	C2291.065430,552.199097 2280.557129,568.259705 2267.928711,582.934753 
	C2248.319824,605.721375 2225.735840,625.175293 2199.938477,641.985840 
z"/>
<path fill="#EFA725" opacity="1.000000" stroke="none" 
	d="
M3116.405762,598.606201 
	C3108.246094,597.261230 3100.790771,596.271790 3091.753174,595.072388 
	C3091.753174,603.410156 3091.753174,610.255615 3091.753174,617.101013 
	C3091.753174,623.687378 3091.753174,630.273682 3091.753174,637.432617 
	C3087.042236,637.432617 3083.174072,637.432617 3079.220703,637.432617 
	C3077.165771,630.571838 3076.374268,570.149719 3078.090332,545.488647 
	C3078.601562,545.073364 3079.110840,544.302612 3079.626953,544.298157 
	C3096.916016,544.148682 3114.212646,543.735413 3131.492188,544.105652 
	C3142.638184,544.344482 3151.122559,551.248535 3153.987549,560.681519 
	C3157.302002,571.594238 3155.170166,581.194580 3146.343750,588.461121 
	C3142.631592,591.517334 3137.657471,593.040955 3133.361572,595.208618 
	C3138.097168,601.343262 3143.452148,607.861511 3148.331543,614.718506 
	C3153.274170,621.664734 3157.745850,628.946106 3163.343506,637.483521 
	C3158.339600,637.715393 3154.865723,637.737732 3151.421875,638.071228 
	C3147.194824,638.480713 3144.811279,636.535461 3142.706543,632.980957 
	C3138.652588,626.134277 3134.375244,619.374756 3129.625244,613.000000 
	C3125.894043,607.992188 3121.313232,603.617615 3116.405762,598.606201 
M3138.701660,576.901428 
	C3142.770508,564.645020 3138.586914,556.521179 3126.613770,555.627502 
	C3115.457275,554.794739 3104.189941,555.449524 3092.370605,555.449524 
	C3092.370605,565.389099 3092.370605,574.490173 3092.370605,584.109253 
	C3094.732910,584.336487 3096.644043,584.706238 3098.548096,584.671570 
	C3107.175293,584.514221 3115.799316,584.146912 3124.427002,584.047729 
	C3129.748291,583.986572 3134.113037,582.116150 3138.701660,576.901428 
z"/>
<path fill="#FFFFFE" opacity="1.000000" stroke="none" 
	d="
M3138.154297,577.520813 
	C3134.113037,582.116150 3129.748291,583.986572 3124.427002,584.047729 
	C3115.799316,584.146912 3107.175293,584.514221 3098.548096,584.671570 
	C3096.644043,584.706238 3094.732910,584.336487 3092.370605,584.109253 
	C3092.370605,574.490173 3092.370605,565.389099 3092.370605,555.449524 
	C3104.189941,555.449524 3115.457275,554.794739 3126.613770,555.627502 
	C3138.586914,556.521179 3142.770508,564.645020 3138.154297,577.520813 
z"/>
</svg>